<svg width="95" height="35" viewBox="0 0 95 35" fill="none" xmlns="http://www.w3.org/2000/svg">
<g clip-path="url(#clip0_1_3)">
<path fill-rule="evenodd" clip-rule="evenodd" d="M44.7093 14.4868V18.1461C44.7109 18.2914 44.6536 18.4314 44.5499 18.5352C44.4463 18.6391 44.3048 18.6984 44.1565 18.7001H31.6061C31.5326 18.7009 31.4601 18.7159 31.3925 18.7441C31.325 18.7724 31.2638 18.8134 31.2125 18.8649C31.1611 18.9163 31.1206 18.9772 31.0933 19.044C31.066 19.1108 31.0524 19.1822 31.0533 19.2542V21.193C31.0524 21.2649 31.066 21.3364 31.0933 21.4032C31.1206 21.4699 31.1611 21.5308 31.2125 21.5823C31.2638 21.6337 31.325 21.6748 31.3925 21.703C31.4601 21.7313 31.5326 21.7462 31.6061 21.747H44.1565C44.23 21.7479 44.3027 21.7629 44.3703 21.7913C44.4379 21.8197 44.4991 21.8608 44.5505 21.9124C44.6018 21.964 44.6423 22.025 44.6695 22.092C44.6968 22.1589 44.7103 22.2305 44.7093 22.3025V26.8951C44.7109 27.0404 44.6536 27.1804 44.5499 27.2843C44.4463 27.3881 44.3048 27.4474 44.1565 27.4491H31.6061C31.5326 27.4499 31.4601 27.4649 31.3925 27.4931C31.325 27.5214 31.2638 27.5624 31.2125 27.6139C31.1611 27.6654 31.1206 27.7262 31.0933 27.793C31.066 27.8598 31.0524 27.9312 31.0533 28.0032V29.6217C31.0518 29.7668 31.1092 29.9066 31.2128 30.0103C31.3165 30.114 31.4579 30.1731 31.6061 30.1747H44.1565C44.2299 30.1755 44.3025 30.1904 44.37 30.2187C44.4376 30.247 44.4988 30.288 44.5501 30.3395C44.6014 30.3909 44.6419 30.4518 44.6692 30.5186C44.6965 30.5854 44.7102 30.6568 44.7093 30.7287V34.3296C44.7102 34.4016 44.6965 34.473 44.6692 34.5398C44.6419 34.6066 44.6014 34.6674 44.5501 34.7189C44.4988 34.7704 44.4376 34.8114 44.37 34.8397C44.3025 34.8679 44.2299 34.8829 44.1565 34.8837H25.6123C25.5388 34.8829 25.4663 34.8679 25.3988 34.8397C25.3312 34.8114 25.27 34.7704 25.2187 34.7189C25.1674 34.6674 25.1269 34.6066 25.0996 34.5398C25.0722 34.473 25.0586 34.4016 25.0595 34.3296V14.4868C25.059 14.4149 25.0729 14.3436 25.1005 14.2769C25.1281 14.2103 25.1688 14.1496 25.2203 14.0984C25.2718 14.0472 25.3331 14.0064 25.4007 13.9784C25.4683 13.9504 25.5409 13.9358 25.6143 13.9352H44.1585C44.306 13.9373 44.4467 13.9965 44.5499 14.0998C44.6531 14.2031 44.7104 14.3422 44.7093 14.4868Z" fill="black"/>
<path fill-rule="evenodd" clip-rule="evenodd" d="M54.8535 19.0571V20.9964C54.8524 21.191 54.9297 21.3781 55.0686 21.5172C55.2075 21.6562 55.3968 21.736 55.5953 21.7391H60.3956C60.5644 21.7383 60.728 21.6817 60.86 21.5784C60.9919 21.4752 61.0845 21.3314 61.1227 21.1702L61.5886 19.2309C61.6156 19.1223 61.6172 19.0092 61.5934 18.8999C61.5695 18.7906 61.5208 18.688 61.4509 18.5997C61.3809 18.5114 61.2916 18.4397 61.1894 18.39C61.0873 18.3403 60.975 18.3138 60.8609 18.3125H55.5953C55.3964 18.3156 55.2068 18.3956 55.0679 18.5351C54.929 18.6746 54.8519 18.8622 54.8535 19.0571ZM54.8535 28.1547V34.1762C54.8548 34.3707 54.7775 34.558 54.6386 34.697C54.4997 34.8361 54.3103 34.9158 54.1118 34.9188H49.6035C49.405 34.9158 49.2156 34.8361 49.0767 34.697C48.9378 34.558 48.8605 34.3707 48.8618 34.1762V14.6398C48.8605 14.4452 48.9378 14.258 49.0767 14.1189C49.2156 13.9798 49.405 13.9001 49.6035 13.8971H70.749C71.3159 13.8971 71.6793 14.5096 71.3887 15.0195L66.2115 24.0874C66.1545 24.1891 66.121 24.3019 66.1134 24.4178C66.1058 24.5336 66.1243 24.6497 66.1675 24.7578L71.1851 33.8845C71.3872 34.3796 71.0396 34.9198 70.5014 34.9198H65.2358C65.0891 34.9187 64.9461 34.8752 64.8246 34.7948C64.7031 34.7144 64.6085 34.6006 64.5526 34.4678L60.6113 27.8631C60.5554 27.7302 60.4607 27.6164 60.3391 27.5359C60.2175 27.4555 60.0744 27.4121 59.9277 27.411H55.5943C55.3957 27.4144 55.2066 27.4944 55.0679 27.6337C54.9292 27.7729 54.8522 27.9601 54.8535 28.1547Z" fill="black"/>
<path fill-rule="evenodd" clip-rule="evenodd" d="M2.90951 3.97569V2.74584C2.90951 2.5384 3.05706 2.36065 3.24907 2.36065H6.43948C6.63149 2.36065 6.77904 2.52354 6.77904 2.74584V3.9747C6.77904 4.18165 6.63149 4.35939 6.43948 4.35939H3.26372C3.07171 4.36038 2.90951 4.18165 2.90951 3.97569ZM9.18625 0.00741577H0.356268C0.164257 0.00741577 0.00256348 0.18516 0.00256348 0.392114V10.2685C0.00256348 10.4754 0.150109 10.6532 0.34212 10.6532H2.55783C2.74933 10.6532 2.89738 10.4903 2.89738 10.2685V7.30676C2.89738 7.0998 3.04493 6.92206 3.23694 6.92206H7.49049C7.55307 6.91993 7.61381 6.9008 7.66592 6.86679C7.71803 6.83277 7.75947 6.78523 7.78558 6.72946L9.46921 3.54593C9.49965 3.48636 9.51491 3.42045 9.51368 3.35384V0.392114C9.52109 0.345282 9.51823 0.29744 9.5053 0.251774C9.49237 0.206109 9.46966 0.163665 9.43868 0.12727C9.4077 0.0908743 9.36917 0.0613617 9.32564 0.0406958C9.28212 0.0200299 9.2346 0.00868464 9.18625 0.00741577Z" fill="#0663F6"/>
<path fill-rule="evenodd" clip-rule="evenodd" d="M17.3921 2.58395L17.1552 3.70883C17.1354 3.78707 17.0903 3.85689 17.0264 3.90772C16.9626 3.95855 16.8836 3.98763 16.8014 3.99055H14.4377C14.3885 3.99043 14.3399 3.9807 14.2946 3.96194C14.2493 3.94317 14.2083 3.91574 14.1739 3.88126C14.1396 3.84678 14.1126 3.80593 14.0945 3.7611C14.0765 3.71628 14.0677 3.66838 14.0688 3.62021V2.49483C14.0678 2.4467 14.0766 2.39886 14.0947 2.35409C14.1128 2.30933 14.1397 2.26854 14.1741 2.23411C14.2084 2.19968 14.2494 2.17229 14.2947 2.15356C14.3399 2.13482 14.3886 2.12511 14.4377 2.12499H17.0374C17.2734 2.11014 17.4507 2.3468 17.3921 2.58395ZM19.6659 5.51547C19.6427 5.46113 19.632 5.40243 19.6345 5.34356C19.637 5.28468 19.6528 5.22708 19.6806 5.17484L21.0686 2.9835C21.1017 2.92933 21.1219 2.8686 21.1278 2.80576V0.348058C21.128 0.262851 21.0941 0.180947 21.0334 0.120006C20.9726 0.0590641 20.8898 0.0239659 20.8029 0.0222778H11.4843C11.4351 0.0223335 11.3864 0.0319965 11.3411 0.0507017C11.2958 0.0694069 11.2547 0.0967794 11.2203 0.131217C11.1859 0.165654 11.1589 0.206466 11.1408 0.251264C11.1227 0.296063 11.1139 0.34395 11.1149 0.392123V10.2685C11.1139 10.3167 11.1227 10.3645 11.1408 10.4093C11.1589 10.4541 11.1859 10.495 11.2203 10.5294C11.2547 10.5638 11.2958 10.5912 11.3411 10.6099C11.3864 10.6286 11.4351 10.6383 11.4843 10.6383H13.6995C13.7486 10.6383 13.7973 10.6286 13.8426 10.6099C13.8879 10.5912 13.929 10.5638 13.9634 10.5294C13.9978 10.495 14.0248 10.4541 14.0429 10.4093C14.061 10.3645 14.0698 10.3167 14.0688 10.2685V7.233C14.0677 7.18482 14.0765 7.13692 14.0945 7.0921C14.1126 7.04728 14.1396 7.00643 14.1739 6.97194C14.2083 6.93746 14.2493 6.91003 14.2946 6.89127C14.3399 6.8725 14.3885 6.86278 14.4377 6.86266H16.5796C16.6522 6.86328 16.7229 6.88464 16.7833 6.92413C16.8436 6.96363 16.8908 7.01952 16.9192 7.08496L18.3077 10.4165C18.3361 10.4819 18.3834 10.5377 18.4437 10.5771C18.504 10.6165 18.5748 10.6378 18.6473 10.6383H21.2465C21.5123 10.6383 21.6896 10.3571 21.5861 10.1051L19.6659 5.51547Z" fill="#0663F6"/>
<path fill-rule="evenodd" clip-rule="evenodd" d="M54.1047 0.325788V2.17649C54.1067 2.21225 54.1014 2.24804 54.089 2.28173C54.0766 2.31542 54.0574 2.34631 54.0325 2.37257C54.0077 2.39882 53.9777 2.41989 53.9443 2.43452C53.9109 2.44915 53.8749 2.45704 53.8384 2.45771H48.0199C47.9469 2.46155 47.8782 2.49311 47.8285 2.5457C47.7788 2.59828 47.752 2.66777 47.7536 2.73943V3.71677C47.7517 3.75248 47.7571 3.78822 47.7695 3.82185C47.7819 3.85548 47.8011 3.88632 47.826 3.91251C47.8508 3.93871 47.8808 3.95974 47.9141 3.97434C47.9475 3.98894 47.9834 3.99681 48.0199 3.99749H53.8384C53.9114 4.00146 53.9799 4.03305 54.0296 4.08561C54.0793 4.13817 54.1062 4.20758 54.1047 4.2792V6.60373C54.1067 6.63948 54.1014 6.67527 54.089 6.70896C54.0766 6.74265 54.0574 6.77355 54.0325 6.7998C54.0077 6.82605 53.9777 6.84712 53.9443 6.86175C53.9109 6.87638 53.8749 6.88427 53.8384 6.88495H48.0199C47.947 6.88879 47.8784 6.92028 47.8287 6.97276C47.779 7.02524 47.7521 7.09459 47.7536 7.16617V7.98061C47.7516 8.01637 47.7569 8.05216 47.7693 8.08585C47.7817 8.11954 47.8009 8.15043 47.8258 8.17669C47.8506 8.20294 47.8806 8.22401 47.914 8.23864C47.9474 8.25327 47.9834 8.26116 48.0199 8.26183H53.8384C53.9114 8.2658 53.9799 8.29739 54.0296 8.34995C54.0793 8.40251 54.1062 8.47193 54.1047 8.54355V10.3645C54.1067 10.4003 54.1014 10.4361 54.089 10.4698C54.0766 10.5035 54.0574 10.5344 54.0325 10.5606C54.0077 10.5869 53.9777 10.6079 53.9443 10.6226C53.9109 10.6372 53.8749 10.6451 53.8384 10.6458H45.2262C45.1533 10.6418 45.0849 10.6103 45.0353 10.5578C44.9857 10.5053 44.9588 10.436 44.9604 10.3645V0.296083C44.9583 0.260369 44.9637 0.224617 44.976 0.190961C44.9884 0.157304 45.0075 0.126432 45.0324 0.100186C45.0572 0.0739413 45.0871 0.0528594 45.1204 0.0382001C45.1537 0.0235407 45.1897 0.0156038 45.2262 0.0148621H53.8364C53.9124 0.0250947 53.9818 0.062516 54.0314 0.119919C54.0809 0.177323 54.107 0.25065 54.1047 0.325788Z" fill="#0663F6"/>
<path fill-rule="evenodd" clip-rule="evenodd" d="M29.0745 7.6771C29.0745 7.83999 28.9123 7.97416 28.7208 7.97416H27.2434C27.0514 7.97416 26.8897 7.84098 26.8897 7.6771V3.0132C26.8897 2.85032 27.0519 2.71614 27.2434 2.71614H28.7203C28.9123 2.71614 29.074 2.84932 29.074 3.0132L29.0745 7.6771ZM32.1467 0.0227661H23.817C23.4633 0.0227661 23.1818 0.259425 23.1818 0.54114V10.1199C23.1818 10.417 23.4628 10.6383 23.817 10.6383H32.1467C32.5004 10.6383 32.7819 10.4017 32.7819 10.1199V0.5555C32.796 0.258932 32.5014 0.0227661 32.1467 0.0227661Z" fill="#0663F6"/>
<path fill-rule="evenodd" clip-rule="evenodd" d="M56.2295 1.33183e-05H64.7214C64.9432 1.33183e-05 65.1352 0.162901 65.1352 0.355497V2.66517C65.1352 2.85776 64.9579 3.02065 64.7214 3.02065H59.6412C59.4194 3.02065 59.2273 3.18354 59.2273 3.37614V7.285C59.2273 7.4771 59.4047 7.63999 59.6412 7.63999H64.7214C64.9432 7.63999 65.1352 7.80288 65.1352 7.99547V10.3051C65.1352 10.4977 64.9579 10.6606 64.7214 10.6606H56.2295C56.0081 10.6606 55.8156 10.4977 55.8156 10.3051V0.353518C55.8275 0.254776 55.8765 0.163899 55.953 0.0985615C56.0294 0.0332242 56.128 -0.00190143 56.2295 1.33183e-05Z" fill="#0663F6"/>
<path fill-rule="evenodd" clip-rule="evenodd" d="M73.5008 3.42018V10.2903C73.5033 10.3814 73.469 10.4697 73.4055 10.5363C73.3419 10.6028 73.2542 10.6421 73.1613 10.6458H70.4878C70.3948 10.6421 70.3071 10.6028 70.2435 10.5363C70.18 10.4697 70.1457 10.3814 70.1482 10.2903V3.42018C70.1507 3.32908 70.1164 3.2407 70.0529 3.17417C69.9893 3.10764 69.9016 3.06831 69.8086 3.06469H67.1357C67.0895 3.06329 67.0442 3.05298 67.0022 3.03437C66.9601 3.01576 66.9223 2.9892 66.8907 2.95623C66.8592 2.92325 66.8346 2.8845 66.8183 2.8422C66.8021 2.7999 66.7945 2.75487 66.7961 2.70971V0.36934C66.7936 0.278245 66.8279 0.189865 66.8914 0.123332C66.955 0.056799 67.0427 0.0174681 67.1357 0.013855H76.5285C76.6215 0.0173412 76.7094 0.0566159 76.7731 0.123163C76.8367 0.189709 76.8711 0.278163 76.8686 0.36934V2.69634C76.8709 2.78743 76.8365 2.87576 76.7729 2.9422C76.7092 3.00864 76.6215 3.04784 76.5285 3.05133H73.8555C73.7588 3.05469 73.6673 3.0953 73.6008 3.16435C73.5344 3.23341 73.4985 3.32533 73.5008 3.42018Z" fill="#0663F6"/>
<path fill-rule="evenodd" clip-rule="evenodd" d="M42.7543 0.0296936H40.4062C40.1106 0.0296936 39.8595 0.281206 39.8595 0.592133V7.61025C39.8595 7.92118 39.623 8.17319 39.3133 8.17319H37.6458C37.472 8.16968 37.3066 8.09943 37.1851 7.97756C37.0637 7.8557 36.9959 7.69196 36.9965 7.52163V4.69359C36.9975 4.64539 36.9887 4.59748 36.9706 4.55265C36.9525 4.50783 36.9255 4.46698 36.8911 4.43251C36.8567 4.39803 36.8156 4.37061 36.7703 4.35185C36.725 4.33309 36.6763 4.32337 36.6271 4.32325H34.7368C34.6876 4.3233 34.6389 4.33298 34.5935 4.35172C34.5482 4.37045 34.5071 4.39787 34.4727 4.43236C34.4383 4.46685 34.4113 4.50772 34.3932 4.55258C34.3751 4.59743 34.3664 4.64537 34.3675 4.69359V8.60244H34.3821C34.3692 8.65088 34.3643 8.70102 34.3675 8.75098V10.0685C34.3675 10.3794 34.6034 10.6309 34.9142 10.6309H42.7563C43.0519 10.6309 43.3025 10.3794 43.3025 10.0685V0.592133C43.3005 0.281206 43.0499 0.0296936 42.7543 0.0296936Z" fill="#0663F6"/>
<path fill-rule="evenodd" clip-rule="evenodd" d="M88.2013 24.4587C88.2013 21.5574 85.9179 19.2249 83.0675 19.2249C80.3046 19.2249 77.9342 21.5282 77.9049 24.2547C77.861 27.1853 80.1878 29.591 83.0529 29.591C85.8598 29.591 88.2013 27.258 88.2013 24.4587ZM77.2652 35C76.9621 34.6207 76.5957 34.2856 76.3486 33.8776C74.7054 31.0491 73.0915 28.2057 71.4332 25.392C71.0552 24.736 71.0117 24.1542 71.4043 23.4967C73.1057 20.5954 74.7928 17.6941 76.4502 14.7635C76.8287 14.0927 77.3375 13.8159 78.0939 13.8159C81.4245 13.8301 84.7548 13.8301 88.0851 13.8159C88.8122 13.8159 89.3064 14.1075 89.6555 14.72C91.3422 17.6649 93.0341 20.605 94.7312 23.5403C95.0798 24.1379 95.0945 24.6632 94.7453 25.2608C93.044 28.1913 91.3568 31.1362 89.6555 34.0816C89.4665 34.4168 89.1755 34.6935 88.9284 35H77.2652Z" fill="black"/>
<path fill-rule="evenodd" clip-rule="evenodd" d="M6.36922 28.1547V34.1762C6.37044 34.3707 6.2932 34.5579 6.15429 34.697C6.01537 34.8361 5.82603 34.9158 5.62745 34.9188H0.741277C0.542785 34.9157 0.353575 34.8359 0.214771 34.6969C0.0759677 34.5578 -0.00120962 34.3707 1.43388e-05 34.1762V14.6398C-0.00120962 14.4453 0.0759677 14.2581 0.214771 14.1191C0.353575 13.98 0.542785 13.9003 0.741277 13.8971H5.61128C5.80986 13.9001 5.9992 13.9798 6.13812 14.1189C6.27703 14.258 6.35427 14.4452 6.35305 14.6398V21.0266C6.35183 21.2212 6.42908 21.4084 6.56799 21.5475C6.7069 21.6866 6.89624 21.7663 7.09482 21.7693H13.8475C14.046 21.7662 14.2353 21.6864 14.3741 21.5473C14.5129 21.4083 14.59 21.2212 14.5888 21.0266V14.6398C14.5876 14.4452 14.6648 14.258 14.8037 14.1189C14.9427 13.9798 15.132 13.9001 15.3306 13.8971H20.2021C20.4007 13.9001 20.5901 13.9798 20.7291 14.1189C20.8681 14.2579 20.9455 14.4451 20.9444 14.6398V34.1762C20.9455 34.3708 20.8681 34.558 20.7291 34.6971C20.5901 34.8361 20.4007 34.9158 20.2021 34.9188H15.3281C15.1295 34.9158 14.9401 34.8361 14.8012 34.697C14.6623 34.5579 14.5851 34.3707 14.5863 34.1762V28.1547C14.5874 27.9602 14.5102 27.7732 14.3714 27.6341C14.2326 27.4951 14.0435 27.4153 13.845 27.412H7.1115C6.91287 27.415 6.72348 27.4947 6.58449 27.6338C6.44549 27.7728 6.36813 27.96 6.36922 28.1547Z" fill="black"/>
</g>
<defs>
<clipPath id="clip0_1_3">
<rect width="95" height="35" fill="white"/>
</clipPath>
</defs>
</svg>
